# xmcd CD database file
#
# Track frame offsets:
#	150
#	15849
#	28976
#	48461
#	60305
#	78008
#	97140
#	116826
#	132415
#	161605
#	186544
#	212215
#	230261
#	261833
#
# Disc length: 3802 seconds
#
# Revision: 0
# Processed by: cddbd v1.5.1PL0 Copyright (c) Steve Scherf et al.
# Submitted via: CDex 1.51
#
DISCID=bf0ed80e
DTITLE=おとぼけキャラット - MELODY LINE VOL.1
DYEAR=2004
DGENRE=Game
TTITLE0=渚
TTITLE1=空に光る
TTITLE2=願いが叶う場所
TTITLE3=雪野原
TTITLE4=メグメル
TTITLE5=は〜りぃすたーふぃっしゅ
TTITLE6=小さなてのひら
TTITLE7=昼の世界と夜の世界 -Rainy Season Mix-
TTITLE8=夏の羽音 --Power Trance Mix
TTITLE9=虹の彼方へ -Summer Club House Mix-
TTITLE10=Last regrets -80's Disco Mix-
TTITLE11=divergnt flow -Amusment Mix-
TTITLE12=メグメル -Power Trance Mix-
TTITLE13=小さなてのひら -Summer Festa Mix-
EXTD=YEAR: 2004
EXTT0=
EXTT1=
EXTT2=
EXTT3=
EXTT4=
EXTT5=
EXTT6=
EXTT7=
EXTT8=
EXTT9=
EXTT10=
EXTT11=
EXTT12=
EXTT13=
PLAYORDER=
